<?xml version="1.0" encoding="utf-8"?>
<!-- Generator: Adobe Illustrator 25.0.1, SVG Export Plug-In . SVG Version: 6.00 Build 0)  -->
<svg version="1.1" id="Layer_1" xmlns="http://www.w3.org/2000/svg" xmlns:xlink="http://www.w3.org/1999/xlink" x="0px" y="0px"
	 viewBox="0 0 500 500" style="enable-background:new 0 0 500 500;" xml:space="preserve">
<style type="text/css">
	.st0{fill:#78C0AD;}
	.st1{opacity:0.24;fill:#4D4D4D;enable-background:new    ;}
	.st2{fill:#C45E5C;}
	.st3{opacity:0.15;fill:#333333;enable-background:new    ;}
	.st4{fill:#F1CA85;}
</style>
<circle class="st0" cx="250" cy="250" r="237.7"/>
<path class="st1" d="M106.7,106.7h286.1c6.6,0,12,5.4,12,12v286.1c0,6.6-5.4,12-12,12H106.7c-6.6,0-12-5.4-12-12V118.7
	C94.7,112.1,100,106.7,106.7,106.7z"/>
<path class="st2" d="M106.9,94.9h286.1c6.6,0,12,5.4,12,12v286.1c0,6.6-5.4,12-12,12H106.9c-6.6,0-12-5.4-12-12V106.9
	C94.9,100.3,100.3,94.9,106.9,94.9z"/>
<rect x="94.9" y="251.3" class="st3" width="310.1" height="24.4"/>
<path class="st1" d="M233.8,351.3c-7.2,0-13-5.8-13-13c0-36.1-21.8-65.4-48.6-65.4c-7.2,0-13-5.8-13-13s5.8-13,13-13
	c20.5,0,39.6,9.9,53.8,27.9c13.4,17.1,20.8,39.6,20.8,63.5C246.8,345.5,241,351.3,233.8,351.3z"/>
<rect x="162" y="94.9" class="st4" width="29.8" height="310.1"/>
<rect x="94.7" y="234.7" class="st4" width="310.1" height="30.1"/>
<path class="st1" d="M139.3,348.4h-2c-25.4,0-46-20.6-46-46v-2c0-25.2,20.5-45.7,45.7-45.7h48.3v47.7
	C185.3,327.8,164.7,348.4,139.3,348.4z M137,274.8c-14.2,0-25.7,11.5-25.7,25.7v2c0,14.3,11.7,26,26,26h2c14.3,0,26-11.7,26-26
	v-27.7H137z"/>
<path class="st1" d="M216.8,274.8h-48.3v-47.7c0-25.4,20.6-46,46-46h2c25.4,0,46,20.6,46,46v2C262.5,254.3,242,274.8,216.8,274.8z
	 M188.5,254.8h28.3c14.2,0,25.7-11.5,25.7-25.7v-2c0-14.3-11.7-26-26-26h-2c-14.3,0-26,11.7-26,26V254.8z"/>
<path class="st4" d="M176.9,263c-20.5,0-39.7-9.9-53.8-27.9c-13.4-17.1-20.8-39.6-20.8-63.5c0-7.2,5.8-13,13-13s13,5.8,13,13
	c0,36.1,21.8,65.4,48.6,65.4c7.2,0,13,5.8,13,13S184.1,263,176.9,263z"/>
<path class="st4" d="M236.5,344.7c-7.2,0-13-5.8-13-13c0-36.1-21.8-65.4-48.6-65.4c-7.2,0-13-5.8-13-13s5.8-13,13-13
	c20.5,0,39.6,9.9,53.8,27.9c13.4,17.1,20.8,39.6,20.8,63.5C249.5,338.8,243.7,344.7,236.5,344.7z"/>
<path class="st4" d="M137.8,338.9h-2c-25.4,0-46-20.6-46-46v-2c0-25.2,20.5-45.7,45.7-45.7h48.3v47.7
	C183.8,318.3,163.1,338.9,137.8,338.9z M135.4,265.3c-14.2,0-25.7,11.5-25.7,25.7v2c0,14.3,11.7,26,26,26h2c14.3,0,26-11.7,26-26
	v-27.7H135.4z"/>
<path class="st4" d="M215.2,265.3h-48.3v-47.7c0-25.4,20.6-46,46-46h2c25.4,0,46,20.6,46,46v2C260.9,244.8,240.4,265.3,215.2,265.3z
	 M186.9,245.3h28.3c14.2,0,25.7-11.5,25.7-25.7v-2c0-14.3-11.7-26-26-26h-2c-14.3,0-26,11.7-26,26V245.3z"/>
</svg>
